<svg width="1218" height="57" viewBox="0 0 1218 57" fill="none" xmlns="http://www.w3.org/2000/svg">
<rect x="1" y="1" width="815" height="55" rx="5" stroke="#231F20" stroke-width="2"/>
<rect x="839" y="7" width="121" height="41" rx="6" fill="#BD0008"/>
<path d="M18.9375 19.1484H31.5586V20.9531H26.3789V36H24.1758V20.9531H18.9375V19.1484ZM43.9338 23.8125V36.2695C43.9338 37.043 43.8048 37.7109 43.547 38.2734C43.297 38.8359 42.9455 39.3008 42.4923 39.668C42.047 40.0352 41.5158 40.3047 40.8986 40.4766C40.2814 40.6562 39.6095 40.7461 38.883 40.7461C38.2267 40.7461 37.5666 40.6875 36.9025 40.5703C36.2384 40.4609 35.6056 40.3047 35.0041 40.1016C35.1056 39.8281 35.2111 39.5625 35.3205 39.3047C35.4298 39.0469 35.5392 38.7891 35.6486 38.5312C35.8361 38.5938 36.0588 38.6602 36.3166 38.7305C36.5822 38.8008 36.8595 38.8633 37.1486 38.918C37.4455 38.9805 37.7463 39.0273 38.0509 39.0586C38.3634 39.0977 38.6642 39.1172 38.9533 39.1172C39.4064 39.1172 39.8166 39.0547 40.1838 38.9297C40.5509 38.8125 40.8634 38.6328 41.1213 38.3906C41.3791 38.1484 41.5744 37.8477 41.7072 37.4883C41.8478 37.1367 41.9181 36.7305 41.9181 36.2695V33.6211H41.6955C41.4923 33.9883 41.258 34.3359 40.9923 34.6641C40.7267 34.9844 40.4338 35.2656 40.1134 35.5078C39.7931 35.75 39.4455 35.9375 39.0705 36.0703C38.7033 36.2109 38.3127 36.2812 37.8986 36.2812C37.3283 36.2812 36.8322 36.2148 36.4103 36.082C35.9884 35.957 35.6252 35.7695 35.3205 35.5195C35.0236 35.2617 34.7775 34.9453 34.5822 34.5703C34.3947 34.1875 34.2502 33.7461 34.1486 33.2461C34.0627 32.8008 34.008 32.3242 33.9845 31.8164C33.9611 31.3086 33.9494 30.7852 33.9494 30.2461V23.8125H35.965V30.8086C35.965 31.3164 35.9884 31.793 36.0353 32.2383C36.0822 32.6758 36.1838 33.0586 36.34 33.3867C36.5041 33.707 36.7423 33.9609 37.0548 34.1484C37.3673 34.3281 37.7931 34.418 38.3322 34.418C38.7306 34.418 39.1056 34.3242 39.4572 34.1367C39.8088 33.9414 40.133 33.6953 40.4298 33.3984C40.7267 33.1016 40.9963 32.7734 41.2384 32.4141C41.4884 32.0547 41.715 31.7031 41.9181 31.3594V23.8125H43.9338ZM49.5472 40.6875H47.5316V28.4062C47.5316 27.0469 47.512 26.1523 47.473 25.7227C47.4339 25.1914 47.3441 24.6211 47.2034 24.0117L49.1488 23.5781C49.2816 24.0156 49.3792 24.457 49.4417 24.9023C49.5198 25.4492 49.5628 25.8711 49.5706 26.168H49.7464C50.1527 25.3242 50.6019 24.7031 51.0941 24.3047C51.6878 23.7969 52.4222 23.543 53.2972 23.543C54.0628 23.543 54.723 23.7109 55.2777 24.0469C55.8323 24.375 56.262 24.8359 56.5667 25.4297C56.8792 26.0234 57.1058 26.6758 57.2464 27.3867C57.3948 28.0977 57.4691 28.8828 57.4691 29.7422C57.4691 30.7109 57.3675 31.582 57.1644 32.3555C56.9691 33.1289 56.6644 33.8164 56.2503 34.418C55.8363 35.0117 55.2816 35.4727 54.5863 35.8008C53.8909 36.1211 53.0745 36.2812 52.137 36.2812C51.4027 36.2812 50.5394 36.1836 49.5472 35.9883V40.6875ZM49.5472 28.7578V34.207C50.43 34.4414 51.2425 34.5586 51.9847 34.5586C52.6175 34.5586 53.1605 34.4453 53.6136 34.2188C54.0745 33.9844 54.4339 33.6602 54.6917 33.2461C54.9495 32.8242 55.137 32.3555 55.2542 31.8398C55.3714 31.3242 55.43 30.7461 55.43 30.1055C55.43 29.668 55.4183 29.2852 55.3948 28.957C55.3792 28.6211 55.3441 28.2617 55.2894 27.8789C55.2425 27.4883 55.1644 27.1562 55.055 26.8828C54.9456 26.6094 54.8089 26.3555 54.6448 26.1211C54.4808 25.8867 54.2659 25.7109 54.0003 25.5938C53.7425 25.4688 53.4417 25.4062 53.098 25.4062C52.2698 25.4062 51.5511 25.7383 50.9417 26.4023C50.5042 26.8867 50.0394 27.6719 49.5472 28.7578ZM69.3169 35.3203C68.4497 35.6641 67.6333 35.9102 66.8677 36.0586C66.1098 36.207 65.4302 36.2812 64.8286 36.2812C63.9067 36.2812 63.102 36.1367 62.4145 35.8477C61.727 35.5508 61.1528 35.1367 60.6919 34.6055C60.2388 34.0742 59.895 33.4414 59.6606 32.707C59.4341 31.9648 59.3208 31.1484 59.3208 30.2578C59.3208 29.7109 59.3598 29.1641 59.438 28.6172C59.5161 28.0703 59.6411 27.5508 59.813 27.0586C59.9848 26.5586 60.2075 26.0938 60.4809 25.6641C60.7622 25.2344 61.102 24.8633 61.5005 24.5508C61.8989 24.2383 62.3638 23.9922 62.895 23.8125C63.4263 23.6328 64.0317 23.543 64.7114 23.543C66.4536 23.543 67.7661 24.0898 68.6489 25.1836C69.5317 26.2695 69.9731 27.8281 69.9731 29.8594V30.5039H61.395C61.395 31.1602 61.4653 31.7422 61.6059 32.25C61.7466 32.75 61.9614 33.1758 62.2505 33.5273C62.5473 33.8711 62.9184 34.1328 63.3638 34.3125C63.8169 34.4922 64.352 34.582 64.9692 34.582C65.313 34.582 65.6528 34.5586 65.9888 34.5117C66.3325 34.457 66.6645 34.3906 66.9848 34.3125C67.3052 34.2266 67.6098 34.1328 67.8989 34.0312C68.1958 33.9297 68.4731 33.832 68.7309 33.7383L69.3169 35.3203ZM67.9458 28.8867C67.8833 27.6211 67.5786 26.6992 67.0317 26.1211C66.4927 25.5352 65.7192 25.2422 64.7114 25.2422C63.7036 25.2422 62.9341 25.5352 62.4028 26.1211C61.8794 26.6992 61.563 27.6211 61.4536 28.8867H67.9458ZM87.6102 35.5664C87.0008 35.7773 86.3484 35.9492 85.6531 36.082C84.9656 36.2148 84.3133 36.2812 83.6961 36.2812C82.7586 36.2812 81.9461 36.1445 81.2586 35.8711C80.5711 35.5977 80.0008 35.1992 79.5477 34.6758C79.1023 34.1523 78.7703 33.5117 78.5516 32.7539C78.3328 31.9883 78.2234 31.1172 78.2234 30.1406C78.2234 29.0781 78.3563 28.1367 78.6219 27.3164C78.8953 26.4961 79.2859 25.8086 79.7938 25.2539C80.3094 24.6914 80.9344 24.2656 81.6688 23.9766C82.4109 23.6875 83.2508 23.543 84.1883 23.543C84.6648 23.543 85.1492 23.5938 85.6414 23.6953C86.1336 23.7891 86.6336 23.9102 87.1414 24.0586L86.6375 25.6992C86.2313 25.5664 85.8523 25.4609 85.5008 25.3828C85.157 25.3047 84.7938 25.2656 84.4109 25.2656C83.0828 25.2656 82.0594 25.6523 81.3406 26.4258C80.6219 27.1914 80.2625 28.3516 80.2625 29.9062C80.2625 30.6328 80.3133 31.2852 80.4148 31.8633C80.5242 32.4336 80.7117 32.9219 80.9773 33.3281C81.2508 33.7266 81.618 34.0312 82.0789 34.2422C82.5477 34.4531 83.1414 34.5586 83.8602 34.5586C84.3289 34.5586 84.8328 34.5 85.3719 34.3828C85.9188 34.2578 86.4969 34.1055 87.1063 33.9258L87.6102 35.5664ZM91.2783 19.0898C91.6377 19.0898 91.9502 19.2148 92.2158 19.4648C92.4736 19.7383 92.6025 20.0586 92.6025 20.4258C92.6025 20.8008 92.4736 21.1172 92.2158 21.375C91.9502 21.6406 91.6377 21.7734 91.2783 21.7734C90.9033 21.7734 90.583 21.6406 90.3173 21.375C90.0517 21.125 89.9189 20.8086 89.9189 20.4258C89.9189 20.0508 90.0517 19.7305 90.3173 19.4648C90.583 19.2148 90.9033 19.0898 91.2783 19.0898ZM90.247 23.8125H92.2627V36H90.247V23.8125ZM97.1378 21.0234H99.1534V23.8125H103.255V25.5117H99.1534V32.5078C99.1534 32.9766 99.1652 33.3359 99.1886 33.5859C99.2198 33.8281 99.2902 34.0195 99.3995 34.1602C99.6027 34.4414 100.013 34.582 100.63 34.582C100.974 34.582 101.306 34.5469 101.626 34.4766C101.954 34.4062 102.255 34.3281 102.528 34.2422C102.747 34.7188 102.946 35.2422 103.126 35.8125C102.204 36.125 101.275 36.2812 100.337 36.2812C99.6573 36.2812 99.1105 36.2031 98.6964 36.0469C98.2902 35.8984 97.9698 35.6523 97.7355 35.3086C97.4933 34.9492 97.3331 34.5195 97.255 34.0195C97.1769 33.5195 97.1378 32.8281 97.1378 31.9453V25.5117H95.38V23.8125H97.1378V21.0234ZM115.618 23.8125V36.2695C115.618 37.043 115.49 37.7109 115.232 38.2734C114.982 38.8359 114.63 39.3008 114.177 39.668C113.732 40.0352 113.2 40.3047 112.583 40.4766C111.966 40.6562 111.294 40.7461 110.568 40.7461C109.911 40.7461 109.251 40.6875 108.587 40.5703C107.923 40.4609 107.29 40.3047 106.689 40.1016C106.79 39.8281 106.896 39.5625 107.005 39.3047C107.115 39.0469 107.224 38.7891 107.333 38.5312C107.521 38.5938 107.743 38.6602 108.001 38.7305C108.267 38.8008 108.544 38.8633 108.833 38.918C109.13 38.9805 109.431 39.0273 109.736 39.0586C110.048 39.0977 110.349 39.1172 110.638 39.1172C111.091 39.1172 111.501 39.0547 111.868 38.9297C112.236 38.8125 112.548 38.6328 112.806 38.3906C113.064 38.1484 113.259 37.8477 113.392 37.4883C113.533 37.1367 113.603 36.7305 113.603 36.2695V33.6211H113.38C113.177 33.9883 112.943 34.3359 112.677 34.6641C112.411 34.9844 112.118 35.2656 111.798 35.5078C111.478 35.75 111.13 35.9375 110.755 36.0703C110.388 36.2109 109.997 36.2812 109.583 36.2812C109.013 36.2812 108.517 36.2148 108.095 36.082C107.673 35.957 107.31 35.7695 107.005 35.5195C106.708 35.2617 106.462 34.9453 106.267 34.5703C106.079 34.1875 105.935 33.7461 105.833 33.2461C105.747 32.8008 105.693 32.3242 105.669 31.8164C105.646 31.3086 105.634 30.7852 105.634 30.2461V23.8125H107.65V30.8086C107.65 31.3164 107.673 31.793 107.72 32.2383C107.767 32.6758 107.868 33.0586 108.025 33.3867C108.189 33.707 108.427 33.9609 108.74 34.1484C109.052 34.3281 109.478 34.418 110.017 34.418C110.415 34.418 110.79 34.3242 111.142 34.1367C111.493 33.9414 111.818 33.6953 112.115 33.3984C112.411 33.1016 112.681 32.7734 112.923 32.4141C113.173 32.0547 113.4 31.7031 113.603 31.3594V23.8125H115.618ZM127.22 19.1484H129.083L120.763 36H118.9L127.22 19.1484ZM135.002 25.5117C134.681 25.5117 134.388 25.5078 134.123 25.5C133.857 25.4922 133.599 25.4766 133.349 25.4531C133.107 25.4219 132.857 25.375 132.599 25.3125C132.349 25.25 132.076 25.1641 131.779 25.0547C131.88 24.7734 131.978 24.5 132.072 24.2344C132.173 23.9688 132.275 23.6875 132.377 23.3906C132.689 23.4922 132.966 23.5703 133.209 23.625C133.451 23.6797 133.689 23.7227 133.923 23.7539C134.158 23.7773 134.4 23.793 134.65 23.8008C134.9 23.8086 135.197 23.8125 135.541 23.8125H140.463V25.2188L134.345 34.3008H140.568V36H131.826V34.582L137.931 25.5117H135.002ZM144.681 19.0898C145.041 19.0898 145.353 19.2148 145.619 19.4648C145.877 19.7383 146.006 20.0586 146.006 20.4258C146.006 20.8008 145.877 21.1172 145.619 21.375C145.353 21.6406 145.041 21.7734 144.681 21.7734C144.306 21.7734 143.986 21.6406 143.72 21.375C143.455 21.125 143.322 20.8086 143.322 20.4258C143.322 20.0508 143.455 19.7305 143.72 19.4648C143.986 19.2148 144.306 19.0898 144.681 19.0898ZM143.65 23.8125H145.666V36H143.65V23.8125ZM151.455 40.6875H149.439V28.4062C149.439 27.0469 149.42 26.1523 149.381 25.7227C149.342 25.1914 149.252 24.6211 149.111 24.0117L151.057 23.5781C151.189 24.0156 151.287 24.457 151.35 24.9023C151.428 25.4492 151.471 25.8711 151.478 26.168H151.654C152.06 25.3242 152.51 24.7031 153.002 24.3047C153.596 23.7969 154.33 23.543 155.205 23.543C155.971 23.543 156.631 23.7109 157.185 24.0469C157.74 24.375 158.17 24.8359 158.475 25.4297C158.787 26.0234 159.014 26.6758 159.154 27.3867C159.303 28.0977 159.377 28.8828 159.377 29.7422C159.377 30.7109 159.275 31.582 159.072 32.3555C158.877 33.1289 158.572 33.8164 158.158 34.418C157.744 35.0117 157.189 35.4727 156.494 35.8008C155.799 36.1211 154.982 36.2812 154.045 36.2812C153.31 36.2812 152.447 36.1836 151.455 35.9883V40.6875ZM151.455 28.7578V34.207C152.338 34.4414 153.15 34.5586 153.893 34.5586C154.525 34.5586 155.068 34.4453 155.521 34.2188C155.982 33.9844 156.342 33.6602 156.6 33.2461C156.857 32.8242 157.045 32.3555 157.162 31.8398C157.279 31.3242 157.338 30.7461 157.338 30.1055C157.338 29.668 157.326 29.2852 157.303 28.957C157.287 28.6211 157.252 28.2617 157.197 27.8789C157.15 27.4883 157.072 27.1562 156.963 26.8828C156.853 26.6094 156.717 26.3555 156.553 26.1211C156.389 25.8867 156.174 25.7109 155.908 25.5938C155.65 25.4688 155.35 25.4062 155.006 25.4062C154.178 25.4062 153.459 25.7383 152.85 26.4023C152.412 26.8867 151.947 27.6719 151.455 28.7578ZM177.014 35.5664C176.405 35.7773 175.752 35.9492 175.057 36.082C174.369 36.2148 173.717 36.2812 173.1 36.2812C172.162 36.2812 171.35 36.1445 170.662 35.8711C169.975 35.5977 169.405 35.1992 168.951 34.6758C168.506 34.1523 168.174 33.5117 167.955 32.7539C167.737 31.9883 167.627 31.1172 167.627 30.1406C167.627 29.0781 167.76 28.1367 168.026 27.3164C168.299 26.4961 168.69 25.8086 169.197 25.2539C169.713 24.6914 170.338 24.2656 171.072 23.9766C171.815 23.6875 172.655 23.543 173.592 23.543C174.069 23.543 174.553 23.5938 175.045 23.6953C175.537 23.7891 176.037 23.9102 176.545 24.0586L176.041 25.6992C175.635 25.5664 175.256 25.4609 174.905 25.3828C174.561 25.3047 174.197 25.2656 173.815 25.2656C172.487 25.2656 171.463 25.6523 170.744 26.4258C170.026 27.1914 169.666 28.3516 169.666 29.9062C169.666 30.6328 169.717 31.2852 169.819 31.8633C169.928 32.4336 170.115 32.9219 170.381 33.3281C170.655 33.7266 171.022 34.0312 171.483 34.2422C171.951 34.4531 172.545 34.5586 173.264 34.5586C173.733 34.5586 174.237 34.5 174.776 34.3828C175.322 34.2578 175.901 34.1055 176.51 33.9258L177.014 35.5664ZM184.034 23.543C184.416 23.543 184.815 23.5742 185.229 23.6367C185.643 23.6914 186.049 23.8008 186.448 23.9648C186.846 24.1367 187.221 24.3711 187.573 24.668C187.932 24.957 188.248 25.3359 188.522 25.8047C188.795 26.2812 189.01 26.8555 189.166 27.5273C189.323 28.1914 189.401 28.9844 189.401 29.9062C189.401 30.8281 189.323 31.625 189.166 32.2969C189.01 32.9609 188.795 33.5273 188.522 33.9961C188.248 34.4727 187.932 34.8594 187.573 35.1562C187.221 35.4531 186.846 35.6836 186.448 35.8477C186.049 36.0195 185.643 36.1328 185.229 36.1875C184.815 36.25 184.416 36.2812 184.034 36.2812C183.659 36.2812 183.264 36.25 182.85 36.1875C182.444 36.1328 182.041 36.0195 181.643 35.8477C181.245 35.6836 180.87 35.4531 180.518 35.1562C180.166 34.8594 179.854 34.4727 179.58 33.9961C179.307 33.5273 179.092 32.9609 178.936 32.2969C178.78 31.625 178.702 30.8281 178.702 29.9062C178.702 28.9844 178.78 28.1914 178.936 27.5273C179.092 26.8555 179.307 26.2812 179.58 25.8047C179.854 25.3359 180.166 24.957 180.518 24.668C180.87 24.3711 181.245 24.1367 181.643 23.9648C182.041 23.8008 182.444 23.6914 182.85 23.6367C183.256 23.5742 183.651 23.543 184.034 23.543ZM184.034 25.1953C183.588 25.1953 183.166 25.2656 182.768 25.4062C182.377 25.5469 182.034 25.793 181.737 26.1445C181.432 26.5039 181.19 26.9844 181.01 27.5859C180.83 28.1875 180.741 28.9609 180.741 29.9062C180.741 30.8438 180.83 31.6172 181.01 32.2266C181.19 32.8281 181.432 33.3047 181.737 33.6562C182.034 34.0156 182.377 34.2656 182.768 34.4062C183.166 34.5391 183.588 34.6055 184.034 34.6055C184.487 34.6055 184.913 34.5391 185.311 34.4062C185.717 34.2656 186.073 34.0156 186.377 33.6562C186.682 33.3047 186.92 32.8281 187.092 32.2266C187.272 31.6172 187.362 30.8438 187.362 29.9062C187.362 28.9609 187.272 28.1875 187.092 27.5859C186.92 26.9844 186.682 26.5039 186.377 26.1445C186.073 25.793 185.717 25.5469 185.311 25.4062C184.913 25.2656 184.487 25.1953 184.034 25.1953ZM199.268 19.125H201.284V31.3945C201.284 32.7695 201.303 33.6719 201.342 34.1016C201.381 34.6328 201.471 35.2031 201.612 35.8125L199.667 36.2461C199.534 35.8086 199.436 35.3672 199.374 34.9219C199.295 34.375 199.253 33.9531 199.245 33.6562H199.069C198.663 34.5 198.213 35.1211 197.721 35.5195C197.128 36.0273 196.393 36.2812 195.518 36.2812C194.753 36.2812 194.092 36.1172 193.538 35.7891C192.983 35.4531 192.549 34.9883 192.237 34.3945C191.932 33.8008 191.706 33.1484 191.557 32.4375C191.417 31.7266 191.346 30.9414 191.346 30.082C191.346 29.1133 191.444 28.2422 191.639 27.4688C191.842 26.6953 192.151 26.0117 192.565 25.418C192.979 24.8164 193.534 24.3555 194.229 24.0352C194.924 23.707 195.741 23.543 196.678 23.543C197.413 23.543 198.276 23.6406 199.268 23.8359V19.125ZM199.268 31.0664V25.6172C198.385 25.3828 197.573 25.2656 196.831 25.2656C196.198 25.2656 195.651 25.3828 195.19 25.6172C194.737 25.8438 194.381 26.168 194.124 26.5898C193.866 27.0039 193.678 27.4688 193.561 27.9844C193.444 28.5 193.385 29.0781 193.385 29.7188C193.385 30.1562 193.393 30.543 193.409 30.8789C193.432 31.207 193.467 31.5664 193.514 31.957C193.569 32.3398 193.651 32.668 193.76 32.9414C193.87 33.2148 194.006 33.4688 194.17 33.7031C194.335 33.9375 194.545 34.1172 194.803 34.2422C195.069 34.3594 195.374 34.418 195.717 34.418C196.545 34.418 197.264 34.0859 197.874 33.4219C198.311 32.9375 198.776 32.1523 199.268 31.0664ZM214.022 35.3203C213.155 35.6641 212.339 35.9102 211.573 36.0586C210.815 36.207 210.135 36.2812 209.534 36.2812C208.612 36.2812 207.807 36.1367 207.12 35.8477C206.432 35.5508 205.858 35.1367 205.397 34.6055C204.944 34.0742 204.6 33.4414 204.366 32.707C204.139 31.9648 204.026 31.1484 204.026 30.2578C204.026 29.7109 204.065 29.1641 204.143 28.6172C204.221 28.0703 204.346 27.5508 204.518 27.0586C204.69 26.5586 204.913 26.0938 205.186 25.6641C205.467 25.2344 205.807 24.8633 206.206 24.5508C206.604 24.2383 207.069 23.9922 207.6 23.8125C208.132 23.6328 208.737 23.543 209.417 23.543C211.159 23.543 212.471 24.0898 213.354 25.1836C214.237 26.2695 214.678 27.8281 214.678 29.8594V30.5039H206.1C206.1 31.1602 206.171 31.7422 206.311 32.25C206.452 32.75 206.667 33.1758 206.956 33.5273C207.253 33.8711 207.624 34.1328 208.069 34.3125C208.522 34.4922 209.057 34.582 209.675 34.582C210.018 34.582 210.358 34.5586 210.694 34.5117C211.038 34.457 211.37 34.3906 211.69 34.3125C212.01 34.2266 212.315 34.1328 212.604 34.0312C212.901 33.9297 213.178 33.832 213.436 33.7383L214.022 35.3203ZM212.651 28.8867C212.589 27.6211 212.284 26.6992 211.737 26.1211C211.198 25.5352 210.425 25.2422 209.417 25.2422C208.409 25.2422 207.639 25.5352 207.108 26.1211C206.585 26.6992 206.268 27.6211 206.159 28.8867H212.651Z" fill="black"/>
<path d="M865.216 32.082C865.865 32.332 866.556 32.543 867.291 32.7148C868.033 32.8789 868.838 32.9609 869.705 32.9609C870.267 32.9609 870.783 32.9102 871.252 32.8086C871.72 32.707 872.123 32.5469 872.459 32.3281C872.802 32.1094 873.068 31.832 873.255 31.4961C873.451 31.1523 873.548 30.7422 873.548 30.2656C873.548 29.75 873.443 29.3398 873.232 29.0352C873.029 28.7305 872.74 28.4805 872.365 28.2852C871.99 28.0898 871.537 27.9258 871.005 27.793C870.474 27.6602 869.884 27.5117 869.236 27.3477C868.509 27.1602 867.845 26.9453 867.244 26.7031C866.65 26.4609 866.142 26.1484 865.72 25.7656C865.298 25.3828 864.97 24.9102 864.736 24.3477C864.502 23.7852 864.384 23.0898 864.384 22.2617C864.384 21.707 864.474 21.2109 864.654 20.7734C864.841 20.3359 865.091 19.957 865.404 19.6367C865.716 19.3086 866.076 19.0312 866.482 18.8047C866.896 18.5781 867.326 18.3945 867.771 18.2539C868.224 18.1133 868.685 18.0117 869.154 17.9492C869.623 17.8867 870.068 17.8555 870.49 17.8555C870.787 17.8555 871.142 17.8711 871.556 17.9023C871.978 17.9336 872.423 17.9922 872.892 18.0781C873.369 18.1562 873.857 18.2617 874.357 18.3945C874.865 18.5273 875.353 18.6953 875.822 18.8984L874.99 20.9375C874.365 20.7109 873.713 20.5273 873.033 20.3867C872.361 20.2461 871.654 20.1758 870.912 20.1758C870.443 20.1758 870.013 20.2148 869.623 20.293C869.232 20.3633 868.892 20.4805 868.603 20.6445C868.322 20.8086 868.103 21.0234 867.947 21.2891C867.791 21.5547 867.713 21.875 867.713 22.25C867.713 22.7344 867.806 23.1133 867.994 23.3867C868.189 23.6602 868.466 23.8828 868.826 24.0547C869.185 24.2266 869.623 24.375 870.138 24.5C870.662 24.6172 871.252 24.7617 871.908 24.9336C872.627 25.1211 873.287 25.3438 873.888 25.6016C874.498 25.8516 875.021 26.1797 875.459 26.5859C875.904 26.9844 876.252 27.4805 876.502 28.0742C876.752 28.668 876.877 29.3984 876.877 30.2656C876.877 31.0312 876.755 31.6875 876.513 32.2344C876.271 32.7812 875.955 33.2422 875.564 33.6172C875.173 33.9844 874.728 34.2773 874.228 34.4961C873.728 34.7148 873.22 34.8828 872.705 35C872.189 35.1172 871.689 35.1914 871.205 35.2227C870.72 35.2617 870.295 35.2812 869.927 35.2812C869.568 35.2734 869.162 35.25 868.709 35.2109C868.263 35.1719 867.795 35.1094 867.302 35.0234C866.81 34.9375 866.31 34.8242 865.802 34.6836C865.302 34.5352 864.818 34.3555 864.349 34.1445L865.216 32.082ZM889.709 34.4492C889.388 34.582 889.037 34.6992 888.654 34.8008C888.279 34.9023 887.885 34.9883 887.47 35.0586C887.056 35.1289 886.635 35.1836 886.205 35.2227C885.783 35.2617 885.369 35.2812 884.963 35.2812C882.908 35.2812 881.353 34.7891 880.299 33.8047C879.252 32.8125 878.728 31.2969 878.728 29.2578C878.728 28.3516 878.834 27.4922 879.045 26.6797C879.256 25.8672 879.595 25.1562 880.064 24.5469C880.541 23.9297 881.162 23.4414 881.928 23.082C882.701 22.7227 883.646 22.543 884.763 22.543C886.717 22.543 888.174 23.0625 889.135 24.1016C890.095 25.1328 890.576 26.7109 890.576 28.8359V29.7617H881.916C881.931 30.293 881.994 30.7617 882.103 31.168C882.213 31.5742 882.392 31.918 882.642 32.1992C882.9 32.4727 883.236 32.6836 883.65 32.832C884.064 32.9727 884.584 33.043 885.209 33.043C885.756 33.043 886.345 32.9766 886.978 32.8438C887.611 32.7031 888.271 32.5039 888.959 32.2461L889.709 34.4492ZM887.365 27.6758C887.31 25.7461 886.443 24.7812 884.763 24.7812C883.896 24.7812 883.236 25.0312 882.783 25.5312C882.338 26.0312 882.064 26.7461 881.963 27.6758H887.365ZM893.518 23.4102C893.807 23.293 894.135 23.1836 894.502 23.082C894.877 22.9805 895.271 22.8906 895.685 22.8125C896.107 22.7266 896.541 22.6602 896.986 22.6133C897.439 22.5664 897.896 22.543 898.357 22.543C899.006 22.543 899.611 22.5938 900.174 22.6953C900.744 22.7969 901.217 22.9648 901.592 23.1992C901.967 23.4336 902.26 23.7539 902.471 24.1602C902.682 24.5586 902.787 25.0625 902.787 25.6719V30.4297C902.787 30.9766 902.791 31.4648 902.799 31.8945C902.807 32.3164 902.822 32.7305 902.846 33.1367C902.861 33.2852 902.877 33.4219 902.893 33.5469C902.908 33.6641 902.924 33.7812 902.939 33.8984C902.963 34.0078 902.986 34.125 903.01 34.25C903.041 34.375 903.076 34.5117 903.115 34.6602C902.631 34.7695 902.146 34.875 901.662 34.9766C901.185 35.0781 900.701 35.1758 900.209 35.2695C900.123 35.0508 900.053 34.8281 899.998 34.6016C899.951 34.3672 899.908 34.1016 899.869 33.8047H899.693C899.42 34.0859 899.146 34.3203 898.873 34.5078C898.6 34.6953 898.314 34.8477 898.018 34.9648C897.721 35.082 897.412 35.1641 897.092 35.2109C896.771 35.2578 896.435 35.2812 896.084 35.2812C895.545 35.2812 895.045 35.2148 894.584 35.082C894.123 34.957 893.721 34.7617 893.377 34.4961C893.041 34.2305 892.775 33.8945 892.58 33.4883C892.393 33.0742 892.299 32.5898 892.299 32.0352C892.299 31.5664 892.346 31.1484 892.439 30.7812C892.541 30.4141 892.682 30.0859 892.861 29.7969C893.041 29.5078 893.256 29.2539 893.506 29.0352C893.756 28.8164 894.033 28.625 894.338 28.4609C894.947 28.1328 895.627 27.9102 896.377 27.793C897.127 27.668 897.893 27.6055 898.674 27.6055H899.682V26.082C899.682 25.793 899.635 25.5664 899.541 25.4023C899.455 25.2305 899.334 25.1016 899.178 25.0156C899.029 24.9297 898.853 24.875 898.65 24.8516C898.447 24.8203 898.228 24.8047 897.994 24.8047C897.361 24.8047 896.721 24.8867 896.072 25.0508C895.432 25.207 894.818 25.4023 894.232 25.6367L893.518 23.4102ZM899.682 29.3281H899.447C898.893 29.3359 898.361 29.3789 897.853 29.457C897.353 29.5273 896.912 29.6523 896.529 29.832C896.146 30.0117 895.838 30.25 895.603 30.5469C895.377 30.8359 895.264 31.2031 895.264 31.6484C895.264 32.1406 895.404 32.5195 895.685 32.7852C895.975 33.0508 896.377 33.1836 896.893 33.1836C897.135 33.1836 897.385 33.1523 897.643 33.0898C897.9 33.0195 898.154 32.9258 898.404 32.8086C898.654 32.6836 898.889 32.5312 899.107 32.3516C899.326 32.1719 899.518 31.9648 899.682 31.7305V29.3281ZM909.631 24.8984C909.912 24.4844 910.174 24.1445 910.416 23.8789C910.65 23.6211 910.897 23.4102 911.154 23.2461C911.412 23.0742 911.67 22.9375 911.928 22.8359C912.193 22.7266 912.459 22.6523 912.725 22.6133C912.99 22.5664 913.252 22.543 913.51 22.543C913.729 22.543 913.94 22.5586 914.143 22.5898C914.354 22.6133 914.549 22.6445 914.729 22.6836C914.705 22.9023 914.674 23.1367 914.635 23.3867C914.596 23.6289 914.553 23.875 914.506 24.125C914.459 24.375 914.404 24.6211 914.342 24.8633C914.287 25.1055 914.229 25.332 914.166 25.543C913.721 25.457 913.334 25.3867 913.006 25.332C912.678 25.2695 912.385 25.2383 912.127 25.2383C911.885 25.2383 911.662 25.2734 911.459 25.3438C911.264 25.4062 911.068 25.5195 910.873 25.6836C910.678 25.8477 910.475 26.0664 910.264 26.3398C910.061 26.6055 909.83 26.9414 909.572 27.3477V35H906.361V27.4883C906.361 27.0352 906.358 26.6133 906.35 26.2227C906.342 25.8242 906.326 25.4531 906.303 25.1094C906.279 24.7578 906.244 24.4258 906.197 24.1133C906.15 23.8008 906.088 23.4961 906.01 23.1992C906.518 23.0664 907.022 22.9453 907.522 22.8359C908.029 22.7266 908.541 22.6289 909.057 22.543C909.111 22.707 909.162 22.8711 909.209 23.0352C909.256 23.1914 909.295 23.3633 909.326 23.5508C909.358 23.7305 909.385 23.9297 909.408 24.1484C909.432 24.3672 909.455 24.6172 909.479 24.8984H909.631ZM926.518 34.543C926.198 34.6602 925.846 34.7656 925.463 34.8594C925.08 34.9531 924.69 35.0312 924.291 35.0938C923.901 35.1562 923.514 35.2031 923.131 35.2344C922.748 35.2656 922.397 35.2812 922.076 35.2812C920.944 35.2812 919.987 35.1484 919.205 34.8828C918.424 34.6172 917.791 34.2266 917.307 33.7109C916.83 33.1875 916.487 32.543 916.276 31.7773C916.065 31.0117 915.959 30.1328 915.959 29.1406C915.959 28.1016 916.092 27.1719 916.358 26.3516C916.631 25.5312 917.037 24.8398 917.576 24.2773C918.115 23.7148 918.787 23.2852 919.592 22.9883C920.397 22.6914 921.338 22.543 922.416 22.543C923.041 22.543 923.662 22.5938 924.28 22.6953C924.897 22.7891 925.487 22.918 926.049 23.082L925.264 25.4023C924.795 25.2461 924.338 25.1211 923.893 25.0273C923.455 24.9336 923.01 24.8867 922.557 24.8867C921.955 24.8867 921.44 24.9883 921.01 25.1914C920.588 25.3867 920.24 25.6641 919.967 26.0234C919.694 26.375 919.49 26.7969 919.358 27.2891C919.233 27.7812 919.17 28.3203 919.17 28.9062C919.17 30.2656 919.405 31.2773 919.873 31.9414C920.35 32.6055 921.135 32.9375 922.229 32.9375C922.901 32.9375 923.518 32.8672 924.08 32.7266C924.651 32.5859 925.217 32.418 925.78 32.2227L926.518 34.543ZM932.319 18.125V24.8984H932.401C932.643 24.5391 932.893 24.2148 933.151 23.9258C933.409 23.6367 933.694 23.3906 934.006 23.1875C934.327 22.9766 934.678 22.8164 935.061 22.707C935.444 22.5977 935.877 22.543 936.362 22.543C937.291 22.543 938.038 22.7305 938.6 23.1055C939.17 23.4727 939.592 24.0352 939.866 24.793C940.014 25.1992 940.12 25.6562 940.182 26.1641C940.252 26.6719 940.288 27.2422 940.288 27.875V35H937.077V26.9492C937.077 26.3164 936.928 25.8164 936.631 25.4492C936.334 25.0742 935.909 24.8867 935.354 24.8867C935.041 24.8867 934.737 24.9648 934.44 25.1211C934.143 25.2773 933.862 25.4727 933.596 25.707C933.33 25.9414 933.088 26.1992 932.87 26.4805C932.651 26.7617 932.467 27.0312 932.319 27.2891V35H929.096V18.125H932.319Z" fill="white"/>
<path d="M1176 27H1212" stroke="#AB151B" stroke-width="4" stroke-linecap="round" stroke-linejoin="round"/>
<path d="M1176 16H1212" stroke="#AB151B" stroke-width="4" stroke-linecap="round" stroke-linejoin="round"/>
<path d="M1176 38H1212" stroke="#AB151B" stroke-width="4" stroke-linecap="round" stroke-linejoin="round"/>
</svg>
